<svg width="19" height="26" viewBox="0 0 19 26" fill="none" xmlns="http://www.w3.org/2000/svg">
<path d="M9.50099 0.951004C10.4009 0.951004 11.2806 1.21786 12.0288 1.71782C12.7771 2.21778 13.3603 2.92839 13.7046 3.75979C14.049 4.5912 14.1391 5.50605 13.9636 6.38867C13.788 7.27128 13.3547 8.08201 12.7183 8.71834C12.082 9.35467 11.2713 9.78801 10.3886 9.96358C9.50604 10.1391 8.59118 10.049 7.75978 9.70466C6.92838 9.36028 6.21776 8.77709 5.7178 8.02885C5.21784 7.28061 4.95099 6.40091 4.95099 5.501C4.95099 4.29427 5.43036 3.13696 6.28365 2.28367C7.13694 1.43038 8.29425 0.951004 9.50099 0.951004V0.951004Z" fill="#644699"/>
<path d="M9.5 26C14.7467 26 19 22.6421 19 18.5C19 14.3579 14.7467 11 9.5 11C4.25329 11 0 14.3579 0 18.5C0 22.6421 4.25329 26 9.5 26Z" fill="#E03E91"/>
</svg>
