<svg width="24" height="24" viewBox="0 0 24 24" fill="none" xmlns="http://www.w3.org/2000/svg">
<path d="M11.5395 22.9959C8.59417 22.9959 5.64884 22.9959 2.70351 22.9959C2.34111 23.0284 1.976 22.9807 1.63405 22.8564C1.29209 22.7321 0.981632 22.5341 0.724686 22.2765C0.46774 22.0189 0.270592 21.708 0.147172 21.3657C0.0237514 21.0234 -0.0229259 20.6582 0.0104834 20.2959C0.0104834 15.2505 0.0104834 10.2052 0.0104834 5.1599C-0.021819 4.79722 0.0258667 4.43186 0.150132 4.08961C0.274397 3.74737 0.472226 3.43656 0.729691 3.17909C0.987156 2.92163 1.29796 2.72377 1.64021 2.5995C1.98246 2.47524 2.34782 2.42758 2.7105 2.45988C3.3515 2.45988 3.9925 2.45088 4.6335 2.45988C4.8835 2.45988 4.9725 2.37087 4.9655 2.12587C4.9535 1.71687 4.9555 1.30788 4.9655 0.89888C4.95491 0.78447 4.96837 0.669112 5.00505 0.560227C5.04174 0.451341 5.10081 0.35135 5.17848 0.266678C5.25615 0.182005 5.35069 0.114515 5.45601 0.0685883C5.56133 0.0226615 5.67513 -0.000686098 5.79002 1.53491e-05C5.90492 0.000716797 6.01837 0.0254683 6.12312 0.0726777C6.22788 0.119887 6.32161 0.18851 6.39824 0.274124C6.47487 0.359739 6.53272 0.460453 6.56807 0.569779C6.60342 0.679104 6.61549 0.794618 6.6035 0.90889C6.6135 1.30889 6.6165 1.69989 6.6035 2.09489C6.5955 2.34689 6.6635 2.46189 6.9445 2.46089C10.0112 2.45289 13.0778 2.45289 16.1445 2.46089C16.4075 2.46089 16.5125 2.38089 16.5025 2.11089C16.4865 1.70289 16.4905 1.2929 16.5025 0.883896C16.4946 0.771664 16.51 0.659017 16.5475 0.552963C16.5851 0.446909 16.6441 0.349694 16.7208 0.26741C16.7975 0.185127 16.8903 0.119524 16.9935 0.0746613C17.0967 0.0297986 17.208 0.00663766 17.3205 0.00663766C17.433 0.00663766 17.5443 0.0297986 17.6475 0.0746613C17.7507 0.119524 17.8435 0.185127 17.9202 0.26741C17.9969 0.349694 18.0559 0.446909 18.0935 0.552963C18.131 0.659017 18.1464 0.771664 18.1385 0.883896C18.1505 1.2929 18.1545 1.70289 18.1385 2.11089C18.1285 2.38189 18.2385 2.46589 18.4965 2.46089C19.1645 2.44789 19.8325 2.45189 20.4965 2.46089C20.842 2.44372 21.1872 2.4993 21.5098 2.62404C21.8324 2.74878 22.1253 2.93988 22.3693 3.18498C22.6134 3.43009 22.8033 3.72374 22.9266 4.04689C23.05 4.37004 23.1041 4.71547 23.0855 5.06087C23.0855 10.1742 23.0855 15.2879 23.0855 20.4019C23.1048 20.7477 23.0508 21.0936 22.9272 21.4171C22.8036 21.7406 22.6131 22.0344 22.3681 22.2793C22.1232 22.5241 21.8294 22.7145 21.5058 22.838C21.1823 22.9615 20.8363 23.0153 20.4905 22.9959C17.5092 22.9992 14.5255 22.9992 11.5395 22.9959ZM11.5855 9.85988C8.4345 9.85988 5.28549 9.86489 2.13149 9.85289C1.76749 9.85289 1.64551 9.93587 1.64751 10.3249C1.66351 13.6249 1.65649 16.9249 1.65749 20.2249C1.65749 21.0859 1.92149 21.3499 2.78249 21.3499H20.3395C21.1765 21.3499 21.4475 21.0809 21.4485 20.2499C21.4485 16.9499 21.4425 13.6499 21.4575 10.3499C21.4575 9.95487 21.3505 9.84987 20.9575 9.84987C17.8325 9.86687 14.7085 9.85988 11.5845 9.85988H11.5855ZM11.5325 8.20189H21.0245C21.2425 8.20189 21.4595 8.24688 21.4535 7.89088C21.4355 6.92288 21.4535 5.95389 21.4425 4.99089C21.4521 4.87027 21.4349 4.74901 21.3922 4.63582C21.3494 4.52262 21.2821 4.42028 21.1951 4.33617C21.1081 4.25205 21.0036 4.18823 20.8891 4.14928C20.7745 4.11033 20.6527 4.09722 20.5325 4.11089C19.8505 4.09989 19.1685 4.11789 18.4875 4.10289C18.2105 4.09689 18.1325 4.2099 18.1415 4.4659C18.1555 4.8659 18.1515 5.25687 18.1415 5.65187C18.1539 5.76608 18.1422 5.88162 18.1072 5.99104C18.0723 6.10047 18.0147 6.20138 17.9384 6.28725C17.8621 6.37311 17.7687 6.44206 17.6641 6.48964C17.5595 6.53722 17.4462 6.56237 17.3313 6.56349C17.2164 6.56461 17.1026 6.54166 16.9971 6.49614C16.8917 6.45061 16.7969 6.38351 16.7189 6.29915C16.6409 6.21479 16.5815 6.11506 16.5444 6.00633C16.5073 5.89761 16.4934 5.78232 16.5035 5.66789C16.4925 5.25889 16.4905 4.84987 16.5035 4.44087C16.5105 4.19687 16.4265 4.1039 16.1745 4.1039C13.0925 4.1099 10.0105 4.1099 6.92848 4.1039C6.67448 4.1039 6.59249 4.20389 6.60149 4.44289C6.61449 4.81089 6.60649 5.17889 6.60149 5.54289C6.59549 6.19289 6.30848 6.54788 5.79048 6.55388C5.25348 6.55988 4.9635 6.20288 4.9575 5.52388C4.9575 5.18288 4.9415 4.84087 4.9575 4.50087C4.9755 4.20087 4.8825 4.08688 4.5685 4.10088C3.9285 4.12188 3.28649 4.10087 2.64549 4.10887C1.95149 4.11487 1.65551 4.41388 1.65151 5.11488C1.65151 5.98788 1.6685 6.86089 1.6415 7.73289C1.6305 8.10689 1.73549 8.21588 2.11549 8.21388C5.25849 8.19588 8.39549 8.20189 11.5325 8.20189V8.20189Z" fill="#717171"/>
<path d="M5.74947 13.1179C5.44947 13.1179 5.14948 13.1409 4.84948 13.1119C4.65182 13.0944 4.4677 13.0041 4.33288 12.8585C4.19806 12.713 4.12217 12.5224 4.11992 12.324C4.11768 12.1256 4.18924 11.9334 4.32073 11.7848C4.45222 11.6362 4.63426 11.5418 4.83147 11.5199C5.45694 11.4835 6.08399 11.4835 6.70946 11.5199C6.91018 11.5345 7.09701 11.6278 7.22924 11.7795C7.36147 11.9312 7.42842 12.129 7.41549 12.3299C7.41854 12.5301 7.34477 12.7238 7.20937 12.8713C7.07397 13.0188 6.88722 13.1089 6.68749 13.1229C6.64708 13.1288 6.60632 13.1322 6.56548 13.1329H5.74749L5.74947 13.1179Z" fill="#717171"/>
<path d="M17.3315 13.1219C17.0315 13.1219 16.7315 13.1419 16.4315 13.1219C16.2312 13.1058 16.0442 13.0156 15.907 12.8688C15.7698 12.7221 15.6924 12.5294 15.6899 12.3285C15.6874 12.1276 15.76 11.9331 15.8935 11.783C16.0269 11.6328 16.2117 11.5379 16.4115 11.5169C17.0237 11.484 17.6373 11.484 18.2495 11.5169C18.3545 11.5183 18.4583 11.5404 18.5548 11.5818C18.6513 11.6233 18.7388 11.6834 18.8121 11.7587C18.8854 11.8339 18.9432 11.9229 18.9821 12.0204C19.021 12.118 19.0404 12.2223 19.039 12.3274C19.0376 12.4324 19.0155 12.5362 18.9741 12.6327C18.9326 12.7293 18.8725 12.8167 18.7972 12.89C18.722 12.9633 18.633 13.0211 18.5354 13.06C18.4378 13.0989 18.3335 13.1183 18.2285 13.1169C17.9285 13.1429 17.6285 13.1219 17.3285 13.1219H17.3315Z" fill="#717171"/>
<path d="M11.5335 13.1199C11.2335 13.1199 10.9335 13.1419 10.6335 13.1149C10.4213 13.1181 10.2166 13.0369 10.0643 12.8891C9.91205 12.7413 9.82468 12.5391 9.8215 12.3269C9.81832 12.1147 9.89955 11.91 10.0473 11.7577C10.1951 11.6054 10.3974 11.5181 10.6095 11.5149C11.233 11.4794 11.858 11.4794 12.4815 11.5149C12.6937 11.5172 12.8963 11.6036 13.0447 11.7552C13.1931 11.9068 13.2753 12.1112 13.273 12.3234C13.2708 12.5356 13.1843 12.7381 13.0327 12.8866C12.8811 13.035 12.6767 13.1172 12.4645 13.1149C12.1605 13.1419 11.8455 13.1189 11.5335 13.1199Z" fill="#717171"/>
<path d="M11.5575 18.0699C11.8295 18.0699 12.1015 18.0589 12.3725 18.0699C12.5859 18.0656 12.7923 18.146 12.9465 18.2935C13.1007 18.441 13.1903 18.6436 13.1955 18.8569C13.2028 18.9628 13.1886 19.0691 13.1536 19.1693C13.1186 19.2696 13.0637 19.3617 12.9921 19.44C12.9204 19.5184 12.8337 19.5814 12.737 19.6252C12.6403 19.669 12.5357 19.6927 12.4295 19.6949C11.8462 19.7242 11.2618 19.7242 10.6785 19.6949C10.5724 19.6922 10.468 19.668 10.3716 19.6238C10.2751 19.5795 10.1887 19.5162 10.1174 19.4376C10.0462 19.359 9.99165 19.2667 9.95711 19.1664C9.92258 19.066 9.90877 18.9597 9.91652 18.8539C9.9214 18.6475 10.0059 18.4508 10.1524 18.3053C10.2989 18.1597 10.496 18.0765 10.7025 18.0729C10.9865 18.0549 11.2725 18.0729 11.5585 18.0729L11.5575 18.0699Z" fill="#717171"/>
<path d="M11.5645 14.7918C11.8505 14.7918 12.1365 14.7768 12.4205 14.7918C12.6199 14.7951 12.8106 14.874 12.9541 15.0125C13.0976 15.151 13.1831 15.3387 13.1935 15.5379C13.2053 15.6401 13.1967 15.7437 13.1683 15.8426C13.1398 15.9415 13.092 16.0338 13.0277 16.1142C12.9633 16.1945 12.8837 16.2613 12.7934 16.3106C12.7031 16.36 12.6039 16.3911 12.5015 16.4019C11.8775 16.4432 11.2515 16.4432 10.6275 16.4019C10.525 16.3933 10.4252 16.3646 10.3339 16.3174C10.2425 16.2702 10.1614 16.2055 10.095 16.1269C10.0287 16.0483 9.97855 15.9575 9.9474 15.8595C9.91625 15.7615 9.90472 15.6583 9.91349 15.5559C9.91898 15.3494 10.005 15.1533 10.1532 15.0094C10.3014 14.8655 10.5 14.7853 10.7065 14.7859C10.9915 14.7699 11.2775 14.7859 11.5625 14.7859L11.5645 14.7918Z" fill="#717171"/>
<path d="M5.75549 16.4289C5.48349 16.4289 5.2115 16.4459 4.9415 16.4289C4.83194 16.4273 4.72382 16.4036 4.62366 16.3592C4.52349 16.3148 4.43337 16.2506 4.35864 16.1704C4.28392 16.0903 4.22615 15.9959 4.18884 15.8928C4.15153 15.7898 4.13543 15.6803 4.14151 15.5709C4.14258 15.465 4.16505 15.3605 4.20758 15.2635C4.25011 15.1666 4.31181 15.0792 4.38898 15.0067C4.46614 14.9342 4.55716 14.8781 4.65659 14.8417C4.75601 14.8053 4.86177 14.7894 4.9675 14.7949C5.51017 14.7796 6.05316 14.7796 6.5965 14.7949C6.70228 14.7904 6.80789 14.8075 6.90692 14.8449C7.00595 14.8824 7.09635 14.9395 7.1727 15.0129C7.24905 15.0863 7.30975 15.1743 7.35114 15.2718C7.39252 15.3692 7.41374 15.474 7.41351 15.5799C7.41808 15.6891 7.40063 15.798 7.36221 15.9002C7.32379 16.0025 7.26518 16.0959 7.18988 16.1751C7.11458 16.2542 7.02411 16.3174 6.92389 16.3608C6.82367 16.4042 6.71573 16.427 6.60651 16.4279C6.32751 16.4449 6.04149 16.4299 5.75549 16.4289Z" fill="#717171"/>
<path d="M17.3215 14.7949C17.6215 14.7949 17.9215 14.7769 18.2215 14.7949C18.4178 14.8075 18.6027 14.8912 18.7417 15.0303C18.8806 15.1695 18.964 15.3546 18.9763 15.5508C18.9886 15.7471 18.9288 15.9412 18.8083 16.0966C18.6877 16.2519 18.5147 16.358 18.3215 16.3949C17.6611 16.4787 16.9928 16.4787 16.3325 16.3949C16.142 16.3557 15.9721 16.2491 15.854 16.0945C15.7359 15.94 15.6776 15.7481 15.6898 15.554C15.7019 15.3599 15.7838 15.1767 15.9202 15.0382C16.0567 14.8996 16.2386 14.815 16.4325 14.7999C16.7235 14.7779 17.0235 14.7949 17.3215 14.7949Z" fill="#717171"/>
<path d="M5.7965 18.0739C6.0825 18.0739 6.3705 18.0559 6.6545 18.0739C6.86184 18.0815 7.0579 18.1702 7.20043 18.321C7.34297 18.4717 7.42057 18.6725 7.4165 18.8799C7.42881 19.0811 7.36072 19.2789 7.2272 19.4298C7.09367 19.5808 6.90565 19.6726 6.70449 19.6849C6.09234 19.7204 5.47866 19.7204 4.86651 19.6849C4.76339 19.6796 4.66241 19.6534 4.56969 19.608C4.47698 19.5626 4.39444 19.4988 4.32705 19.4206C4.25966 19.3423 4.20884 19.2512 4.17764 19.1528C4.14643 19.0544 4.1355 18.9507 4.1455 18.8479C4.1486 18.6476 4.22802 18.4559 4.36758 18.312C4.50713 18.1682 4.69631 18.083 4.89651 18.0739C5.19551 18.0559 5.4975 18.0739 5.7965 18.0739Z" fill="#717171"/>
<path d="M17.3205 19.7069C17.0475 19.7069 16.7745 19.7209 16.5035 19.7069C16.2873 19.7069 16.08 19.621 15.9272 19.4682C15.7743 19.3153 15.6885 19.108 15.6885 18.8919C15.6885 18.6757 15.7743 18.4684 15.9272 18.3156C16.08 18.1627 16.2873 18.0769 16.5035 18.0769C17.0481 18.0602 17.5931 18.0602 18.1385 18.0769C18.3506 18.0777 18.554 18.1613 18.7054 18.3099C18.8568 18.4585 18.9442 18.6603 18.9491 18.8724C18.9539 19.0845 18.8757 19.29 18.7312 19.4453C18.5867 19.6006 18.3873 19.6934 18.1755 19.7039C17.8915 19.7259 17.6035 19.7039 17.3175 19.7039L17.3205 19.7069Z" fill="#717171"/>
</svg>
