<svg id="Layer_1" data-name="Layer 1" xmlns="http://www.w3.org/2000/svg" width="74.7723" height="74.7723" viewBox="0 0 74.7723 74.7723"><defs><style>.cls-1{fill:#644699;}</style></defs><path class="cls-1" d="M62.035,26.3332V63.9549a10.3141,10.3141,0,0,1-10.34,10.34h-39.2a10.3407,10.3407,0,0,1-10.34-10.34v-39.2a10.3674,10.3674,0,0,1,10.34-10.34H48.29c-.2907.3738-.5814.7474-.8719,1.08-.5814.6643-1.1628,1.37-1.7442,2.0762-.2907.3323-.54.6643-.8305.9966H12.4956a6.2027,6.2027,0,0,0-6.1872,6.1872v39.2a6.176,6.176,0,0,0,6.1872,6.1872h39.2a6.15,6.15,0,0,0,6.1872-6.1872V31.2332l1.1628-1.37,2.0763-2.45Z"/><path class="cls-1" d="M72.79,6.9,65.2325.7539a2.8037,2.8037,0,0,0-3.9034.3736c-.0831.1247-5.0661,6.1459-11.0042,13.2881-.5812.7058-1.121,1.37-1.7024,2.0762-.5814.6646-1.1628,1.37-1.744,2.0763C39.03,28.0359,30.7668,38.0849,30.0193,39.04l-4.817,13.5788A2.8345,2.8345,0,0,0,27.86,56.356a2.5293,2.5293,0,0,0,1.4948-.4569l12.2084-7.7652L57.8825,28.8662l2.0762-2.45,2.0347-2.4086,11.17-13.1633a2.7232,2.7232,0,0,0,.623-2.0347A2.6394,2.6394,0,0,0,72.79,6.9Zm-19.0186,9.883c.4568-.5814.955-1.1625,1.412-1.7439,2.8237-3.3636,5.3982-6.52,7.4745-8.97l.9965-1.2041,5.44,4.4016L60.54,19.3986,59.0869,21.101,57.55,22.9282,39.1962,44.6875l-8.8448,5.6473,3.1143-9.0111C34.9193,39.5382,43.8886,28.6586,52.2351,18.61,52.7334,17.9867,53.2317,17.4055,53.7715,16.7825Z"/></svg>