<svg width="47" height="44" viewBox="0 0 47 44" fill="none" xmlns="http://www.w3.org/2000/svg">
<path d="M14.474 34.829H11.297C8.84529 34.8008 6.48238 33.9074 4.6254 32.3064C2.76843 30.7054 1.53682 28.4998 1.14798 26.079C0.818578 24.3196 0.971587 22.5038 1.59079 20.8244C2.21 19.1449 3.27228 17.6644 4.66495 16.54C4.82145 16.4175 4.9423 16.2553 5.01493 16.0703C5.08756 15.8853 5.10933 15.6842 5.07798 15.488C4.93769 14.398 5.04879 13.2904 5.40275 12.2499C5.7567 11.2095 6.34414 10.2639 7.12003 9.48563C7.89592 8.70733 8.83963 8.11698 9.87894 7.75979C10.9183 7.40261 12.0256 7.28807 13.116 7.42497C13.693 7.46997 13.862 7.17197 14.116 6.81197C17.196 2.43497 21.44 0.357972 26.738 0.959972C29.2001 1.14872 31.5511 2.06326 33.4936 3.58797C35.436 5.11268 36.8828 7.1791 37.651 9.52597C37.869 10.2631 38.2477 10.9427 38.7599 11.516C39.272 12.0892 39.9049 12.5417 40.6129 12.841C42.8621 13.9758 44.6782 15.8153 45.7841 18.0787C46.89 20.3422 47.225 22.9053 46.7379 25.377C46.2905 27.8147 45.0676 30.0427 43.2512 31.729C41.4348 33.4153 39.1222 34.4697 36.658 34.735C34.181 34.966 31.667 34.818 29.17 34.799C28.999 34.8042 28.8289 34.7739 28.6703 34.71C28.5116 34.6462 28.3679 34.5502 28.2482 34.4281C28.1285 34.3059 28.0354 34.1603 27.9748 34.0004C27.9141 33.8405 27.8873 33.6698 27.896 33.499C27.9034 33.3281 27.9451 33.1604 28.0185 33.006C28.092 32.8515 28.1958 32.7134 28.3236 32.5997C28.4515 32.4861 28.6009 32.3994 28.763 32.3446C28.925 32.2899 29.0964 32.2682 29.267 32.281C31.276 32.253 33.285 32.268 35.295 32.267C37.53 32.2734 39.6884 31.4526 41.3543 29.9626C43.0203 28.4726 44.0759 26.4189 44.318 24.197C44.576 21.9764 44.0104 19.7383 42.7283 17.907C41.4462 16.0757 39.5368 14.7783 37.362 14.261C36.288 14.007 36.062 13.761 35.88 12.617C35.5383 9.95806 34.2002 7.52795 32.1359 5.81763C30.0716 4.10731 27.435 3.2443 24.7589 3.40297C22.8985 3.45081 21.0847 3.99525 19.5054 4.97988C17.9261 5.96451 16.6388 7.35351 15.777 9.00298C15.051 10.27 14.877 10.365 13.441 10.037C12.6472 9.83588 11.8148 9.84534 11.0259 10.0644C10.2369 10.2836 9.51883 10.7047 8.94248 11.2863C8.36613 11.8679 7.95148 12.5898 7.73954 13.3807C7.5276 14.1716 7.52569 15.0041 7.73398 15.796C8.04198 17.063 7.95297 17.296 6.87497 18.039C5.51208 18.9573 4.48546 20.2946 3.95047 21.8485C3.41549 23.4024 3.40124 25.0883 3.90995 26.651C4.36577 28.2562 5.32792 29.6712 6.65305 30.6853C7.97818 31.6994 9.59542 32.2584 11.264 32.279C13.599 32.287 15.934 32.279 18.27 32.279C18.623 32.2405 18.98 32.2917 19.308 32.428C19.5603 32.54 19.766 32.7361 19.8898 32.9828C20.0136 33.2296 20.048 33.5117 19.987 33.781C19.9407 34.0823 19.7836 34.3555 19.5465 34.5471C19.3094 34.7387 19.0093 34.835 18.705 34.817C17.293 34.835 15.881 34.822 14.469 34.822L14.474 34.829Z" fill="#AFAFAF"/>
<path d="M25.434 20.969C25.266 21.3338 25.2047 21.7387 25.257 22.137C25.2517 28.4876 25.25 34.8383 25.252 41.189C25.2718 41.4869 25.2621 41.786 25.223 42.082C25.1898 42.3837 25.0426 42.6614 24.8117 42.8584C24.5807 43.0554 24.2832 43.1568 23.98 43.142C23.6767 43.162 23.3773 43.0655 23.1428 42.8722C22.9082 42.6789 22.7563 42.4034 22.718 42.102C22.6749 41.8067 22.6636 41.5077 22.684 41.21C22.684 34.8593 22.684 28.5086 22.684 22.158V21.153C22.276 21.199 22.125 21.481 21.929 21.674C20.711 22.874 19.51 24.091 18.291 25.289C17.617 25.952 16.907 26.014 16.355 25.489C16.2153 25.3574 16.1066 25.1964 16.0368 25.0176C15.9669 24.8388 15.9378 24.6467 15.9514 24.4553C15.965 24.2638 16.021 24.0778 16.1154 23.9107C16.2097 23.7435 16.3401 23.5995 16.497 23.489C18.6224 21.3556 20.7557 19.23 22.897 17.112C23.0158 16.9412 23.1738 16.8015 23.3578 16.7045C23.5418 16.6074 23.7464 16.556 23.9544 16.5544C24.1624 16.5529 24.3677 16.6012 24.5531 16.6954C24.7386 16.7897 24.8987 16.927 25.02 17.096C27.1854 19.2293 29.3387 21.3746 31.48 23.532C31.6286 23.6426 31.7512 23.7843 31.8392 23.9471C31.9273 24.11 31.9788 24.2902 31.99 24.475C32.0013 24.6599 31.972 24.845 31.9043 25.0173C31.8366 25.1897 31.7321 25.3452 31.598 25.473C31.4654 25.601 31.3068 25.699 31.1329 25.7603C30.9591 25.8215 30.7741 25.8447 30.5905 25.8281C30.4069 25.8114 30.2291 25.7555 30.069 25.664C29.909 25.5726 29.7705 25.4477 29.663 25.298C28.272 23.897 26.9 22.472 25.434 20.969Z" fill="#AFAFAF"/>
</svg>
