<svg id="Layer_1" data-name="Layer 1" xmlns="http://www.w3.org/2000/svg" width="200" height="200" viewBox="0 0 200 200"><defs><style>.cls-1{fill:#fff;}</style></defs><path class="cls-1" d="M2.8417,55.8705c10.099,48.7639,43.9318,78.6474,94.8161,75.8954,1.1265-8.2534.1038-16.09.4432-24.4268,16.1048,13.1585,30.0845,30.0906,45.4532,44.5376-7.6373,8.4618-44.8157,44.3547-44.8157,44.3547s-.0448-15.9569-.5491-23.6964C38.3653,160.9965-2.07,118.7956,2.1805,56.0336Z"/><path class="cls-1" d="M101.8983,3.033c-.0342,16.1542-.0117,26.1693-.0117,26.1693s13.8345,0,25.1948,4.4776c45.691,18.0091,75.2466,60.6388,69.4161,109.3527-10.01-46.4972-44.4589-80.1759-94.17-75.7265,0,0-.1726,16.2988-.429,24.3639L57.5574,47.3671Z"/></svg>