<svg id="Layer_1" data-name="Layer 1" xmlns="http://www.w3.org/2000/svg" width="20" height="13.6733" viewBox="0 0 20 13.6733"><defs><style>.cls-1{fill:#25a2cb;}</style></defs><path class="cls-1" d="M13.5977,2.8383l-4.44,5.55-1.25,1.56-1.55,1.94a.9876.9876,0,0,1-.68.37h-.1a1.0065,1.0065,0,0,1-.65-.24l-4.03-3.45a1,1,0,0,1,1.3-1.52l3.25,2.78.95-1.19,1.22-1.53,4.42-5.52a1,1,0,0,1,1.56,1.25Z"/><path class="cls-1" d="M19.2377,3.0383l-7.24,9.05a1.031,1.031,0,0,1-.69.37h-.09a.9686.9686,0,0,1-.65-.24L9.1153,10.9676s-.2139-.1909-.2841-.2611a1.4961,1.4961,0,0,1-.14-.1541.9926.9926,0,0,1,.0966-1.1641.9744.9744,0,0,1,1.1255-.2752.6509.6509,0,0,1,.1067.064c.044.0328.098.0727.108.0827l.95.7685,6.6-8.24a.9991.9991,0,0,1,1.4-.16A1.0122,1.0122,0,0,1,19.2377,3.0383Z"/></svg>