<svg id="Layer_1" data-name="Layer 1" xmlns="http://www.w3.org/2000/svg" width="20" height="20" viewBox="0 0 20 20"><path d="M10.0037,15.675a5.4982,5.4982,0,0,1-5.0329-3.2863L4.8524,12.12l.1672-.3346a.6382.6382,0,0,1,.5375-.2931h9.179l.2411.2889a.6383.6383,0,0,1,.0541.6044A5.4964,5.4964,0,0,1,10.0037,15.675ZM6.3064,12.58a4.4031,4.4031,0,0,0,7.3888,0Zm-.342-.6319.0027.0053Z"/><path d="M10,20A10,10,0,1,1,20,10,10.0116,10.0116,0,0,1,10,20ZM10,1.0876A8.9124,8.9124,0,1,0,18.9124,10,8.9223,8.9223,0,0,0,10,1.0876Z"/><path d="M8.05,7.5805A1.3845,1.3845,0,1,1,6.67,6.1919,1.3822,1.3822,0,0,1,8.05,7.5805Z"/><path d="M14.7832,7.5805a1.3845,1.3845,0,1,1-1.38-1.3886A1.3823,1.3823,0,0,1,14.7832,7.5805Z"/></svg>