<svg id="Layer_1" data-name="Layer 1" xmlns="http://www.w3.org/2000/svg" width="19.6832" height="19.6824" viewBox="0 0 19.6832 19.6824"><defs><style>.cls-1{fill:#fff;}</style></defs><path class="cls-1" d="M10.0136.1588A9.8412,9.8412,0,1,1,.1584,9.9863,9.8391,9.8391,0,0,1,10.0136.1588ZM1.9429,9.9822a8.0571,8.0571,0,1,0,8.075-8.0384A8.0641,8.0641,0,0,0,1.9429,9.9822Z" transform="translate(-0.1584 -0.1588)"/><path class="cls-1" d="M14.0537,6.9678a.9782.9782,0,0,1-.3577.6075c-.7233.7206-1.4371,1.451-2.1709,2.1608-.21.2028-.2153.3221-.0021.528.7342.7092,1.4509,1.4367,2.17,2.162a.9095.9095,0,1,1-1.2759,1.2591c-.7044-.7-1.416-1.3932-2.1009-2.1119-.2358-.2474-.3716-.2707-.6193-.0111-.7241.7586-1.4747,1.492-2.2209,2.2293a.8639.8639,0,0,1-1.0414.1838.84.84,0,0,1-.4968-.85,1.0086,1.0086,0,0,1,.3572-.6881c.7244-.7195,1.435-1.4533,2.1724-2.1592.2339-.224.2141-.3455-.0072-.5592C7.6953,8.98,6.9463,8.2253,6.2035,7.465a.89.89,0,0,1-.1349-1.1172.9021.9021,0,0,1,1.0267-.3743,1.1707,1.1707,0,0,1,.4775.33c.721.7229,1.4506,1.4375,2.1608,2.1708.2.2062.3186.2237.528.0072.7387-.7641,1.4962-1.51,2.2514-2.2582a.867.867,0,0,1,1.04-.1855A.9.9,0,0,1,14.0537,6.9678Z" transform="translate(-0.1584 -0.1588)"/></svg>